<svg width="113" height="25" viewBox="0 0 113 25" fill="none" xmlns="http://www.w3.org/2000/svg">
<path d="M0.56 7.852L3.472 7.88L6.636 18.268L9.828 7.88H12.348L15.512 18.268L18.704 7.88H21.588L16.968 23H14.448L11.06 12.052L7.532 23H5.18L0.56 7.852ZM24.3884 2.476H27.3284V5.304H24.3884V2.476ZM24.3884 7.88H27.3284V23H24.3884V7.88ZM35.6626 16.896C35.6626 17.0453 35.6626 17.3533 35.6626 17.82C35.6626 18.268 35.6813 18.632 35.7186 18.912C35.7746 19.192 35.8586 19.4253 35.9706 19.612C36.3813 20.3213 37.1839 20.676 38.3786 20.676C38.9386 20.676 39.5359 20.62 40.1706 20.508V23C39.3679 23.168 38.5653 23.252 37.7626 23.252C36.7173 23.252 35.8026 23.084 35.0186 22.748C34.2533 22.412 33.6746 21.88 33.2826 21.152C33.0586 20.7227 32.9093 20.2933 32.8346 19.864C32.7786 19.416 32.7506 18.884 32.7506 18.268V17.064V10.232H29.8386V7.88H32.7506V3.68H35.6626V7.88H40.1706V10.232H35.6626V16.896ZM50.9191 7.46C52.5244 7.46 53.7658 7.86133 54.6431 8.664C55.5391 9.46667 56.1364 10.4 56.4351 11.464C56.7524 12.528 56.9111 13.5733 56.9111 14.6V23H53.9431V15.58C53.9431 14.1053 53.6631 12.8453 53.1031 11.8C52.5618 10.7547 51.5724 10.232 50.1351 10.232C48.9778 10.232 48.0444 10.624 47.3351 11.408C46.6258 12.192 46.2711 13.4333 46.2711 15.132V23H43.3031V2.84H45.9351V9.672C46.5138 8.96267 47.2231 8.42133 48.0631 8.048C48.9031 7.656 49.8551 7.46 50.9191 7.46Z" fill="#0062F4"/>
<path d="M88.892 7.488C90.4973 7.488 91.748 7.97333 92.644 8.944C93.5587 9.91467 94.016 11.2213 94.016 12.864V23H91.076V13.564C91.076 12.5 90.796 11.66 90.236 11.044C89.676 10.428 88.9387 10.12 88.024 10.12C87.1467 10.12 86.4093 10.4187 85.812 11.016C85.2333 11.6133 84.944 12.4533 84.944 13.536V23H82.032V13.648C82.032 12.5467 81.752 11.688 81.192 11.072C80.6507 10.4373 79.904 10.12 78.952 10.12C78.0373 10.12 77.3 10.4373 76.74 11.072C76.18 11.688 75.9 12.5093 75.9 13.536V23H72.932V7.88H75.536V9.504C76.04 8.86933 76.6653 8.37467 77.412 8.02C78.1773 7.66533 78.9987 7.488 79.876 7.488C80.9027 7.488 81.7893 7.70267 82.536 8.132C83.3013 8.56133 83.88 9.168 84.272 9.952C84.7387 9.18667 85.3733 8.58933 86.176 8.16C86.9973 7.712 87.9027 7.488 88.892 7.488ZM99.756 16.252C99.868 17.6707 100.288 18.7627 101.016 19.528C101.744 20.2747 102.743 20.648 104.012 20.648C104.927 20.648 105.72 20.4427 106.392 20.032C107.064 19.6213 107.587 19.024 107.96 18.24L110.816 19.164C110.237 20.508 109.351 21.5533 108.156 22.3C106.98 23.0467 105.655 23.42 104.18 23.42C102.687 23.42 101.361 23.0933 100.204 22.44C99.0653 21.768 98.1787 20.844 97.544 19.668C96.928 18.4733 96.62 17.1107 96.62 15.58C96.62 13.956 96.928 12.528 97.544 11.296C98.16 10.064 99.028 9.12133 100.148 8.468C101.268 7.796 102.556 7.46 104.012 7.46C105.543 7.46 106.849 7.81467 107.932 8.524C109.033 9.23333 109.845 10.2507 110.368 11.576C110.909 12.9013 111.133 14.46 111.04 16.252H99.756ZM104.124 10.064C102.892 10.064 101.912 10.4 101.184 11.072C100.475 11.7253 100.027 12.696 99.84 13.984H108.044C107.895 12.6587 107.493 11.6787 106.84 11.044C106.187 10.3907 105.281 10.064 104.124 10.064Z" fill="#0062F4"/>
<circle cx="65" cy="16" r="3" fill="#0062F4"/>
</svg>
